<?xml version="1.0" encoding="utf-8"?>
<!-- Generator: Adobe Illustrator 19.0.0, SVG Export Plug-In . SVG Version: 6.00 Build 0)  -->
<svg version="1.1" xmlns="http://www.w3.org/2000/svg" xmlns:xlink="http://www.w3.org/1999/xlink" x="0px" y="0px"
	 viewBox="0 0 1199.8 555" style="enable-background:new 0 0 1199.8 555;" xml:space="preserve">
<style type="text/css">
	.st0{fill:#6EBB44;}
	.st1{fill:#FFFFFF;}
	.st2{fill:#35B44A;}
	.st3{fill:#BCD631;}
	.st4{fill:#231F20;}
</style>
<g id="quadrados">
	<g id="quadrado20">
		<path class="st0" d="M609.9,114.9c-3,0-5.5-2.5-5.5-5.5V61.3c0-3,2.5-5.5,5.5-5.5h48.1c3,0,5.5,2.5,5.5,5.5v48.1
			c0,3-2.5,5.5-5.5,5.5H609.9z"/>
		<path class="st1" d="M658.1,58.3c1.7,0,3,1.3,3,3v48.1c0,1.7-1.3,3-3,3h-48.1c-1.7,0-3-1.3-3-3V61.3c0-1.7,1.3-3,3-3H658.1
			 M658.1,53.3h-48.1c-4.4,0-8,3.6-8,8v48.1c0,4.4,3.6,8,8,8h48.1c4.4,0,8-3.6,8-8V61.3C666.1,56.8,662.5,53.3,658.1,53.3
			L658.1,53.3z"/>
	</g>
	<g id="quadrado19">
		<path class="st2" d="M679.7,112.3c-3,0-5.5-2.5-5.5-5.5V25c0-3,2.5-5.5,5.5-5.5h81.8c3,0,5.5,2.5,5.5,5.5v81.8
			c0,3-2.5,5.5-5.5,5.5H679.7z"/>
		<path class="st1" d="M761.5,22c1.7,0,3,1.3,3,3v81.8c0,1.7-1.3,3-3,3h-81.8c-1.7,0-3-1.3-3-3V25c0-1.7,1.3-3,3-3H761.5 M761.5,17
			h-81.8c-4.4,0-8,3.6-8,8v81.8c0,4.4,3.6,8,8,8h81.8c4.4,0,8-3.6,8-8V25C769.5,20.6,765.9,17,761.5,17L761.5,17z"/>
	</g>
	<g id="quadrado18">
		<path class="st2" d="M454.1,145.5c-3,0-5.5-2.5-5.5-5.5V74.7c0-3,2.5-5.5,5.5-5.5h65.3c3,0,5.5,2.5,5.5,5.5V140
			c0,3-2.5,5.5-5.5,5.5H454.1z"/>
		<path class="st1" d="M519.4,71.7c1.7,0,3,1.3,3,3V140c0,1.7-1.3,3-3,3h-65.3c-1.7,0-3-1.3-3-3V74.7c0-1.7,1.3-3,3-3H519.4
			 M519.4,66.7h-65.3c-4.4,0-8,3.6-8,8V140c0,4.4,3.6,8,8,8h65.3c4.4,0,8-3.6,8-8V74.7C527.4,70.3,523.8,66.7,519.4,66.7L519.4,66.7
			z"/>
	</g>
	<g id="quadrado17">
		<path class="st3" d="M406.1,161.3c-3,0-5.5-2.5-5.5-5.5V94.9c0-3,2.5-5.5,5.5-5.5H467c3,0,5.5,2.5,5.5,5.5v60.9
			c0,3-2.5,5.5-5.5,5.5H406.1z"/>
		<path class="st1" d="M467,91.9c1.7,0,3,1.3,3,3v60.9c0,1.7-1.3,3-3,3h-60.9c-1.7,0-3-1.3-3-3V94.9c0-1.7,1.3-3,3-3H467 M467,86.9
			h-60.9c-4.4,0-8,3.6-8,8v60.9c0,4.4,3.6,8,8,8H467c4.4,0,8-3.6,8-8V94.9C475,90.5,471.4,86.9,467,86.9L467,86.9z"/>
	</g>
	<g id="quadrado16">
		<path class="st3" d="M649.8,153.8c-3,0-5.5-2.5-5.5-5.5V91.7c0-3,2.5-5.5,5.5-5.5h56.6c3,0,5.5,2.5,5.5,5.5v56.6
			c0,3-2.5,5.5-5.5,5.5H649.8z"/>
		<path class="st1" d="M706.4,88.7c1.7,0,3,1.3,3,3v56.6c0,1.7-1.3,3-3,3h-56.6c-1.7,0-3-1.3-3-3V91.7c0-1.7,1.3-3,3-3H706.4
			 M706.4,83.7h-56.6c-4.4,0-8,3.6-8,8v56.6c0,4.4,3.6,8,8,8h56.6c4.4,0,8-3.6,8-8V91.7C714.4,87.3,710.8,83.7,706.4,83.7
			L706.4,83.7z"/>
	</g>
	<g id="quadrado15">
		<path class="st0" d="M541.4,252.9c-3,0-5.5-2.5-5.5-5.5v-48.1c0-3,2.5-5.5,5.5-5.5h48.1c3,0,5.5,2.5,5.5,5.5v48.1
			c0,3-2.5,5.5-5.5,5.5H541.4z"/>
		<path class="st1" d="M589.6,196.3c1.7,0,3,1.3,3,3v48.1c0,1.7-1.3,3-3,3h-48.1c-1.7,0-3-1.3-3-3v-48.1c0-1.7,1.3-3,3-3H589.6
			 M589.6,191.3h-48.1c-4.4,0-8,3.6-8,8v48.1c0,4.4,3.6,8,8,8h48.1c4.4,0,8-3.6,8-8v-48.1C597.6,194.9,594,191.3,589.6,191.3
			L589.6,191.3z"/>
	</g>
	<g id="quadrado14">
		<path class="st0" d="M610.1,230.5c-3,0-5.5-2.5-5.5-5.5v-45.4c0-3,2.5-5.5,5.5-5.5h45.4c3,0,5.5,2.5,5.5,5.5V225
			c0,3-2.5,5.5-5.5,5.5H610.1z"/>
		<path class="st1" d="M655.5,176.6c1.7,0,3,1.3,3,3V225c0,1.7-1.3,3-3,3h-45.4c-1.7,0-3-1.3-3-3v-45.4c0-1.7,1.3-3,3-3H655.5
			 M655.5,171.6h-45.4c-4.4,0-8,3.6-8,8V225c0,4.4,3.6,8,8,8h45.4c4.4,0,8-3.6,8-8v-45.4C663.5,175.2,659.9,171.6,655.5,171.6
			L655.5,171.6z"/>
	</g>
	<g id="quadrado13">
		<path class="st0" d="M544.3,134.3c-3,0-5.5-2.5-5.5-5.5V83.7c0-3,2.5-5.5,5.5-5.5h45.2c3,0,5.5,2.5,5.5,5.5v45.2
			c0,3-2.5,5.5-5.5,5.5H544.3z"/>
		<path class="st1" d="M589.4,80.7c1.7,0,3,1.3,3,3v45.2c0,1.7-1.3,3-3,3h-45.2c-1.7,0-3-1.3-3-3V83.7c0-1.7,1.3-3,3-3H589.4
			 M589.4,75.7h-45.2c-4.4,0-8,3.6-8,8v45.2c0,4.4,3.6,8,8,8h45.2c4.4,0,8-3.6,8-8V83.7C597.4,79.3,593.8,75.7,589.4,75.7
			L589.4,75.7z"/>
	</g>
	<g id="quadrado12">
		<path class="st2" d="M680.4,239.8c-3,0-5.5-2.5-5.5-5.5v-65.5c0-3,2.5-5.5,5.5-5.5h65.5c3,0,5.5,2.5,5.5,5.5v65.5
			c0,3-2.5,5.5-5.5,5.5H680.4z"/>
		<path class="st1" d="M745.9,165.8c1.7,0,3,1.3,3,3v65.5c0,1.7-1.3,3-3,3h-65.5c-1.7,0-3-1.3-3-3v-65.5c0-1.7,1.3-3,3-3H745.9
			 M745.9,160.8h-65.5c-4.4,0-8,3.6-8,8v65.5c0,4.4,3.6,8,8,8h65.5c4.4,0,8-3.6,8-8v-65.5C753.9,164.4,750.3,160.8,745.9,160.8
			L745.9,160.8z"/>
	</g>
	<g id="quadrado11">
		<path class="st0" d="M699.1,175.2c-3,0-5.5-2.5-5.5-5.5v-56.6c0-3,2.5-5.5,5.5-5.5h56.6c3,0,5.5,2.5,5.5,5.5v56.6
			c0,3-2.5,5.5-5.5,5.5H699.1z"/>
		<path class="st1" d="M755.6,110.1c1.7,0,3,1.3,3,3v56.6c0,1.7-1.3,3-3,3h-56.6c-1.7,0-3-1.3-3-3v-56.6c0-1.7,1.3-3,3-3H755.6
			 M755.6,105.1h-56.6c-4.4,0-8,3.6-8,8v56.6c0,4.4,3.6,8,8,8h56.6c4.4,0,8-3.6,8-8v-56.6C763.6,108.7,760,105.1,755.6,105.1
			L755.6,105.1z"/>
	</g>
	<g id="quadrado10">
		<path class="st3" d="M732.6,219.3c-3,0-5.5-2.5-5.5-5.5v-61c0-3,2.5-5.5,5.5-5.5h61c3,0,5.5,2.5,5.5,5.5v61c0,3-2.5,5.5-5.5,5.5
			H732.6z"/>
		<path class="st1" d="M793.6,149.8c1.7,0,3,1.3,3,3v61c0,1.7-1.3,3-3,3h-61c-1.7,0-3-1.3-3-3v-61c0-1.7,1.3-3,3-3H793.6
			 M793.6,144.8h-61c-4.4,0-8,3.6-8,8v61c0,4.4,3.6,8,8,8h61c4.4,0,8-3.6,8-8v-61C801.6,148.4,798,144.8,793.6,144.8L793.6,144.8z"
			/>
	</g>
	<g id="quadrado9">
		<path class="st0" d="M794.9,286.8c-3,0-5.5-2.5-5.5-5.5v-80.5c0-3,2.5-5.5,5.5-5.5h80.5c3,0,5.5,2.5,5.5,5.5v80.5
			c0,3-2.5,5.5-5.5,5.5H794.9z"/>
		<path class="st1" d="M875.4,197.8c1.7,0,3,1.3,3,3v80.5c0,1.7-1.3,3-3,3h-80.5c-1.7,0-3-1.3-3-3v-80.5c0-1.7,1.3-3,3-3H875.4
			 M875.4,192.8h-80.5c-4.4,0-8,3.6-8,8v80.5c0,4.4,3.6,8,8,8h80.5c4.4,0,8-3.6,8-8v-80.5C883.4,196.4,879.8,192.8,875.4,192.8
			L875.4,192.8z"/>
	</g>
	<g id="quadrado8">
		<path class="st2" d="M823.4,176.9c-3,0-5.5-2.5-5.5-5.5v-45.6c0-3,2.5-5.5,5.5-5.5h45.6c3,0,5.5,2.5,5.5,5.5v45.6
			c0,3-2.5,5.5-5.5,5.5H823.4z"/>
		<path class="st1" d="M869.1,122.7c1.7,0,3,1.3,3,3v45.6c0,1.7-1.3,3-3,3h-45.6c-1.7,0-3-1.3-3-3v-45.6c0-1.7,1.3-3,3-3H869.1
			 M869.1,117.7h-45.6c-4.4,0-8,3.6-8,8v45.6c0,4.4,3.6,8,8,8h45.6c4.4,0,8-3.6,8-8v-45.6C877.1,121.3,873.5,117.7,869.1,117.7
			L869.1,117.7z"/>
	</g>
	<g id="quadrado7">
		<path class="st3" d="M780.4,107.9c-3,0-5.5-2.5-5.5-5.5V56.6c0-3,2.5-5.5,5.5-5.5h45.8c3,0,5.5,2.5,5.5,5.5v45.8
			c0,3-2.5,5.5-5.5,5.5H780.4z"/>
		<path class="st1" d="M826.2,53.6c1.7,0,3,1.3,3,3v45.8c0,1.7-1.3,3-3,3h-45.8c-1.7,0-3-1.3-3-3V56.6c0-1.7,1.3-3,3-3H826.2
			 M826.2,48.6h-45.8c-4.4,0-8,3.6-8,8v45.8c0,4.4,3.6,8,8,8h45.8c4.4,0,8-3.6,8-8V56.6C834.2,52.2,830.6,48.6,826.2,48.6
			L826.2,48.6z"/>
	</g>
	<g id="quadrado6">
		<path class="st2" d="M564.5,292.1c-3,0-5.5-2.5-5.5-5.5v-45.2c0-3,2.5-5.5,5.5-5.5h45.2c3,0,5.5,2.5,5.5,5.5v45.2
			c0,3-2.5,5.5-5.5,5.5H564.5z"/>
		<path class="st1" d="M609.7,238.4c1.7,0,3,1.3,3,3v45.2c0,1.7-1.3,3-3,3h-45.2c-1.7,0-3-1.3-3-3v-45.2c0-1.7,1.3-3,3-3H609.7
			 M609.7,233.4h-45.2c-4.4,0-8,3.6-8,8v45.2c0,4.4,3.6,8,8,8h45.2c4.4,0,8-3.6,8-8v-45.2C617.7,237,614.1,233.4,609.7,233.4
			L609.7,233.4z"/>
	</g>
	<g id="quadrado5">
		<path class="st2" d="M330.6,188.5c-3,0-5.5-2.5-5.5-5.5v-45.5c0-3,2.5-5.5,5.5-5.5h45.5c3,0,5.5,2.5,5.5,5.5V183
			c0,3-2.5,5.5-5.5,5.5H330.6z"/>
		<path class="st1" d="M376.1,134.5c1.7,0,3,1.3,3,3V183c0,1.7-1.3,3-3,3h-45.5c-1.7,0-3-1.3-3-3v-45.5c0-1.7,1.3-3,3-3H376.1
			 M376.1,129.5h-45.5c-4.4,0-8,3.6-8,8V183c0,4.4,3.6,8,8,8h45.5c4.4,0,8-3.6,8-8v-45.5C384.1,133.1,380.5,129.5,376.1,129.5
			L376.1,129.5z"/>
	</g>
	<g id="quadrado4">
		<path class="st3" d="M373.6,257.6c-3,0-5.5-2.5-5.5-5.5v-45.5c0-3,2.5-5.5,5.5-5.5h45.5c3,0,5.5,2.5,5.5,5.5v45.5
			c0,3-2.5,5.5-5.5,5.5H373.6z"/>
		<path class="st1" d="M419.1,203.6c1.7,0,3,1.3,3,3v45.5c0,1.7-1.3,3-3,3h-45.5c-1.7,0-3-1.3-3-3v-45.5c0-1.7,1.3-3,3-3H419.1
			 M419.1,198.6h-45.5c-4.4,0-8,3.6-8,8v45.5c0,4.4,3.6,8,8,8h45.5c4.4,0,8-3.6,8-8v-45.5C427.1,202.2,423.5,198.6,419.1,198.6
			L419.1,198.6z"/>
	</g>
	<g id="quadrado3">
		<path class="st2" d="M438.5,288.9c-3,0-5.5-2.5-5.5-5.5v-81.6c0-3,2.5-5.5,5.5-5.5h81.6c3,0,5.5,2.5,5.5,5.5v81.6
			c0,3-2.5,5.5-5.5,5.5H438.5z"/>
		<path class="st1" d="M520.1,198.8c1.7,0,3,1.3,3,3v81.6c0,1.7-1.3,3-3,3h-81.6c-1.7,0-3-1.3-3-3v-81.6c0-1.7,1.3-3,3-3H520.1
			 M520.1,193.8h-81.6c-4.4,0-8,3.6-8,8v81.6c0,4.4,3.6,8,8,8h81.6c4.4,0,8-3.6,8-8v-81.6C528.1,197.4,524.5,193.8,520.1,193.8
			L520.1,193.8z"/>
	</g>
	<g id="quadrado2">
		<path class="st0" d="M323.9,113.7c-3,0-5.5-2.5-5.5-5.5V27c0-3,2.5-5.5,5.5-5.5h81.2c3,0,5.5,2.5,5.5,5.5v81.2
			c0,3-2.5,5.5-5.5,5.5H323.9z"/>
		<path class="st1" d="M405.1,24c1.7,0,3,1.3,3,3v81.2c0,1.7-1.3,3-3,3h-81.2c-1.7,0-3-1.3-3-3V27c0-1.7,1.3-3,3-3H405.1 M405.1,19
			h-81.2c-4.4,0-8,3.6-8,8v81.2c0,4.4,3.6,8,8,8h81.2c4.4,0,8-3.6,8-8V27C413.1,22.6,409.5,19,405.1,19L405.1,19z"/>
	</g>
	<g id="quadrado1">
		<path class="st3" d="M493.6,222.8c-3,0-5.5-2.5-5.5-5.5v-56.6c0-3,2.5-5.5,5.5-5.5h56.6c3,0,5.5,2.5,5.5,5.5v56.6
			c0,3-2.5,5.5-5.5,5.5H493.6z"/>
		<path class="st1" d="M550.2,157.7c1.7,0,3,1.3,3,3v56.6c0,1.7-1.3,3-3,3h-56.6c-1.7,0-3-1.3-3-3v-56.6c0-1.7,1.3-3,3-3H550.2
			 M550.2,152.7h-56.6c-4.4,0-8,3.6-8,8v56.6c0,4.4,3.6,8,8,8h56.6c4.4,0,8-3.6,8-8v-56.6C558.2,156.3,554.6,152.7,550.2,152.7
			L550.2,152.7z"/>
	</g>
	<g id="quadrado0">
		<path class="st0" d="M444.7,200.8c-3,0-5.5-2.5-5.5-5.5v-55.6c0-3,2.5-5.5,5.5-5.5h55.6c3,0,5.5,2.5,5.5,5.5v55.6
			c0,3-2.5,5.5-5.5,5.5H444.7z"/>
		<path class="st1" d="M500.3,136.7c1.7,0,3,1.3,3,3v55.6c0,1.7-1.3,3-3,3h-55.6c-1.7,0-3-1.3-3-3v-55.6c0-1.7,1.3-3,3-3H500.3
			 M500.3,131.7h-55.6c-4.4,0-8,3.6-8,8v55.6c0,4.4,3.6,8,8,8h55.6c4.4,0,8-3.6,8-8v-55.6C508.3,135.3,504.7,131.7,500.3,131.7
			L500.3,131.7z"/>
	</g>
</g>
<g id="letras">
	<path id="letra7" class="st4" d="M1155.5,342.4c14.8,0,29.5,0,44.3,0c0,58,0,115.8,0,173.8c-14.8,0-29.5,0-44.3,0
		C1155.5,458.2,1155.5,400.4,1155.5,342.4z"/>
	<path id="letra6" class="st4" d="M1129,493.8c-3.2,4.3-7,8-11,11.3c-3.6,3-7.4,5.5-11.6,7.5c-3,1.4-6,2.8-9.2,3.8
		c-3.1,0.9-6.2,1.8-9.3,2.4c-3.3,0.6-6.6,0.9-10,1.2c-6.2,0.5-12.5-0.1-18.6-1c-2.1-0.3-4.3-0.9-6.4-1.4c-2.6-0.7-5.2-1.5-7.8-2.3
		c-2.4-0.7-4.8-1.8-7-3.1c-4.5-2.6-8.9-5.3-12.7-8.8c-2.8-2.5-5.4-5.2-7.7-8.1c-3.6-4.5-6.5-9.5-8.7-14.8c-1.5-3.7-2.8-7.5-3.6-11.5
		c-1.3-6.8-2.1-13.5-1.8-20.4c0.1-3.6,1-7.1,1.5-10.6c0.3-1.9,0.7-3.7,1.2-5.6c1.2-4.1,2.6-8,4.4-11.9c2-4.3,4.5-8.3,7.4-11.9
		c4.1-5,8.6-9.6,14.1-13.1c3.6-2.3,7.3-4.5,11.4-6.1c3.2-1.3,6.5-2.2,9.9-3.1c7.9-2.3,15.9-2.2,23.9-1.5c4.3,0.3,8.5,1.2,12.7,2.5
		c7.3,2.2,13.9,5.5,19.9,10.1c6.3,4.9,11.2,10.9,15,17.9c1.9,3.4,3.5,7,4.7,10.7c1.3,3.9,2.1,7.9,3,11.9c2,8.7,1.8,17.6,1.6,26.3
		c-0.9,0.9-2,0.7-3,0.7c-18,0-36,0-54,0c-9,0-17.9,0-26.9,0c-0.8,0-1.6,0-2.4,0c-1.2,1.7,0.1,3.1,0.6,4.3c1,2.3,2.1,4.7,3.7,6.7
		c3.4,4.2,7.6,7.1,12.8,8.8c6,2,12,1.9,18,0.8c3.7-0.7,7.2-2.2,10.5-4.2c3.1-1.9,6-4.2,8.7-6.6c1.7-1.5,1.8-1.5,3.6-0.1
		c4.4,3.6,8.7,7.2,13.1,10.8c2.7,2.2,5.3,4.6,8.2,6.6C1127.7,492.1,1128.5,492.7,1129,493.8z M1046.4,441.1c15.2,0,30.1,0,44.9,0
		c0.4-2.1-0.4-3.9-0.9-5.7c-1-3.8-2.8-7.2-5.2-10.2c-3-3.7-7-6.1-11.6-6.8c-3.9-0.7-8-0.9-11.9,0.8c-1.8,0.8-3.5,1.5-5,2.7
		C1050.6,426.7,1048,433.4,1046.4,441.1z"/>
	<path id="letra5" class="st4" d="M893.3,502.3c-0.1-1.1-0.8-1-1.9-0.7c0,5.8,0,11.7,0,17.5c0,6,0,12,0,18c0,5.9,0,11.8,0,17.4
		c-0.5,0.6-0.9,0.6-1.3,0.6c-14.5,0-29.1,0-43.6,0c0-0.8-0.1-1.6-0.1-2.4c0-54.2,0-108.4,0-162.6c0-0.8,0-1.6,0.1-2.4
		c0.4,0,0.8-0.1,1.2-0.1c14.1,0,28.1,0,42.2,0c0.5,0,1-0.1,1.6,0.6c0,5.1,0,10.5,0,15.8c1.3,0.4,1.9,0.2,1.9-1.1c0,0,0,0,0,0
		c0.4-0.2,0.9-0.4,0.9-1c0-0.2,0.1-0.3,0.2-0.4c0.6,0,1-0.3,0.9-1l0,0c1.6-0.7,2.8-1.7,3.3-3.4c3.6-3.5,7.6-6.4,12.1-8.6
		c1.9-1,3.9-1.6,6-2.3c5.9-2,12.1-2.2,18.3-2c3.4,0.1,6.7,0.9,10,1.8c2.2,0.6,4.4,1.2,6.5,2.1c4.4,1.9,8.5,4.2,12.4,7
		c5.1,3.7,9.3,8.3,12.8,13.4c2.2,3.2,4,6.6,5.7,10c1.6,3.4,2.7,7,3.8,10.6c0.6,1.8,0.8,3.9,1.3,5.7c1.2,4.5,0.6,9.1,1.5,13.5
		c0.4,2.2,0.3,4.5,0,6.7c-0.2,1.4-0.5,2.8-0.5,4.3c-0.1,4.3-0.9,8.5-1.8,12.7c-0.8,3.8-1.9,7.5-3.4,11c-1.8,4.4-4.1,8.6-6.8,12.5
		c-3.4,5-7.6,9.3-12.3,13.1c-2.8,2.3-5.9,4.1-9.1,5.7c-4.3,2.2-8.9,3.7-13.6,4.5c-4.2,0.7-8.5,1.3-12.9,0.8
		c-3.8-0.4-7.7-0.5-11.3-1.6c-3.9-1.2-7.7-2.6-11.3-4.8c-4.8-2.8-8.8-6.5-12.6-10.5C893.3,502.6,893.3,502.4,893.3,502.3z
		 M891.3,451.8c-0.1,3.5-0.2,7,1.1,10.4c1.1,2.9,2.3,5.8,4.1,8.3c3.9,5.5,9.2,9.3,15.7,10.5c4.1,0.7,8.4,0.7,12.7-0.5
		c4.4-1.3,8.1-3.6,11.2-6.8c5.2-5.4,7.4-12.1,8-19.4c0.3-3,0.1-6-0.7-9c-0.6-2.1-1-4.3-1.8-6.3c-1.8-4.3-4.5-7.9-8.1-10.9
		c-3.8-3.2-8-5.1-12.8-5.6c-5.4-0.6-10.5,0.2-15.4,2.9c-8.6,4.9-12.8,12.4-14.1,22C891.2,448.7,891.3,450.2,891.3,451.8z"/>
	<path id="letra4" class="st4" d="M778.3,443c0.4-5.5-0.4-10.5-3.9-15c-2.2-2.7-4.9-4.5-8.1-5.8c-4.4-1.8-9-2.2-13.7-2.1
		c-2.1,0-4.2,0.2-6.2,0.1c-3.4-0.1-6.7,0.7-9.9,1.2c-3.9,0.7-7.9,1.6-11.7,2.9c-2.6,0.9-5.2,1.7-8.1,2.8
		c-3.1-10.6-6.2-21.1-9.2-31.4c1.2-1.5,2.9-1.8,4.4-2.3c4.7-1.5,9.4-3.2,14.3-4.4c5.8-1.4,11.7-2.2,17.6-3.1
		c8.5-1.3,16.9-0.8,25.3-0.6c3.6,0.1,7.3,0.7,10.8,1.5c1.7,0.4,3.4,0.6,5.1,1c5.6,1.4,10.8,3.5,15.7,6.4c6.4,3.7,11.5,8.9,15.3,15.1
		c2,3.3,3.4,7,4.5,10.8c2.5,8.6,2.8,17.4,2.8,26.2c0,22.5,0,44.9,0,67.4c0,0.9,0.2,1.9-0.3,2.8c-2,0.5-35.9,0.7-44.4,0.3
		c-0.7-4.1,0-8.4-0.4-12.8c-1.2,0.2-1.7,1.1-2.4,1.7c-4.5,4.2-9.4,7.8-15.1,10c-4.3,1.7-8.9,2.9-13.7,3.5c-5.4,0.6-10.7,0.4-16-0.3
		c-2.3-0.3-4.6-0.8-6.9-1.6c-2-0.7-4-1.3-5.9-2.1c-3.4-1.5-6.6-3.5-9.4-6c-3.9-3.5-7-7.6-9-12.4c-1.2-2.8-2-5.7-2.6-8.8
		c-0.7-3.7-0.9-7.4-0.7-11.2c0.2-7.3,2.2-14.1,6.3-20.2c2.9-4.3,6.6-7.8,11.1-10.4c3.9-2.3,8-4,12.4-5.2c9.1-2.5,18.3-3.1,27.7-2.6
		c2.9,0.2,5.9,0.4,8.8,0.9c4.4,0.8,8.8,1.9,13.2,2.9C776.6,442.5,777.1,443.5,778.3,443z M756.4,491.2c2-0.1,4-0.3,6-0.8
		c2.9-0.7,5.6-1.8,8.1-3.5c3.2-2.1,5.4-5,6.7-8.5c1.5-4,2.1-8.2,1.9-12.4c-0.1-1.7-0.5-2.3-2.2-2.9c-3.3-1.2-6.8-1.5-10.2-2.3
		c-5.7-1.2-11.1-0.4-16.5,1.4c-4.4,1.5-7.7,4.4-9.3,9c-0.8,2.3-0.8,4.7-0.7,7.1c0.1,4.3,2.2,7.6,5.6,9.9
		C749.1,490.4,752.6,491.4,756.4,491.2z"/>
	<path id="letra3" class="st2" d="M594.2,469.5c0,15.7,0,31.5,0,47c-0.9,0.7-1.6,0.5-2.3,0.5c-13.9,0-27.8,0-41.8,0
		c-2.7,0-2.8-0.1-2.8-2.9c0-27.1,0-54.2,0-81.4c0-26.8,0-53.6,0-80.4c0-0.9,0-1.9,0-2.7c0.8-0.8,1.6-0.6,2.4-0.6
		c25.9,0,51.8,0.1,77.8,0.1c4.3,0,8.3,1,12.5,1.8c1.6,0.3,3.1,0.6,4.7,0.9c5.9,1.4,11.5,3.6,16.7,6.5c5.8,3.2,11,7.2,15.3,12.4
		c2.7,3.4,5.3,6.9,7.1,10.8c1.6,3.4,2.8,6.9,3.8,10.6c2,7.6,2.2,15.3,1.6,23c-0.2,2.7-0.5,5.5-1.5,8.1c-0.5,1.3-0.6,2.8-1,4.1
		c-1.6,5.8-4.3,11-7.8,15.8c-3.5,4.8-7.7,8.9-12.6,12.3c-4.6,3.2-9.5,5.8-14.8,7.8c-3.6,1.3-7.4,2.3-11.1,3.2
		c-4.1,1-8.2,1.4-12.4,1.9c-10.5,1.3-21.1,0.4-31.6,0.7c-0.5,0-1,0-1.4,0.1C594.8,469.1,594.7,469.3,594.2,469.5z M594.4,388.5
		c0,14.5,0,29,0,43.5c0.7,0.4,1.2,0.3,1.8,0.3c7.5,0,15,0,22.5,0c4.2,0,8.2-1.1,12-2.8c8-3.6,11.7-10.1,12.4-18.6
		c0.2-2.1-0.4-4.1-0.7-6.2c-0.6-3.7-2.3-6.8-4.8-9.4c-4.8-4.9-11-6.6-17.4-7c-8-0.4-16.1-0.1-24.2-0.2
		C595.4,388.1,594.9,388,594.4,388.5z"/>
	<path id="letra2" class="st4" d="M520.9,517c-14.8,0-29.5,0-44.1,0c-0.9-0.7-1-1.6-1-2.6c0-3.6,0-7.2,0-10.8c0-18.6,0-37.3,0-55.9
		c0-2.9-0.3-5.8-0.7-8.6c-0.8-4.7-3.2-8.6-6.9-11.6c-0.9-0.7-2.1-1.2-3.2-1.6c-3.2-1-6.4-2-9.8-1c-2,0.6-4.1,0.8-5.9,1.8
		c-4.8,2.8-7.5,7-8.9,12.4c-1.1,4.1-1,8.2-1,12.4c0,20.8,0,41.6,0,62.4c0,1,0.2,2.1-0.4,3.1c-14.7,0-29.3,0-44.1,0
		c-0.9-0.9-0.6-2-0.6-3.1c0-21.4,0-42.7,0-64.1c0-3.6-0.1-7.2-0.9-10.7c-1.3-6.1-4.4-11-10.5-13.2c-3.4-1.2-6.8-1.7-10.6-0.8
		c-4.2,1-7.5,2.8-10.1,6.2c-1.2,1.6-2,3.3-2.7,5.1c-1.7,4.5-1.8,9.2-1.8,13.9c0,21.2,0,42.4,0,63.6c0,1,0.3,2.1-0.6,3.1
		c-14.6,0-29.4,0-44.2,0c-0.7-0.8-0.5-1.9-0.5-2.9c0-7.4,0-14.9,0-22.3c0-33.8,0-67.5,0-101.3c0-1-0.2-2.1,0.3-3.2
		c14.9,0,29.8,0,45,0c0.3,5.4,0,10.7,0.2,16.1c1,0.2,1.5-0.4,2-1.1c2.5-2.9,5.2-5.7,8.3-8.1c4.7-3.7,9.8-6.4,15.5-8.2
		c6.4-2,12.8-2.1,19.3-1.6c4.7,0.4,9.3,1.8,13.6,3.9c6.7,3.3,12.1,8.1,16,14.5c0.4,0.7,0.9,1.3,1.4,2.1c1.7-1.1,2.9-2.9,4.3-4.3
		c4.6-4.6,9.7-8.4,15.6-11.3c2.8-1.4,5.8-2.4,8.8-3.3c5-1.5,10.1-1.8,15.2-1.9c3.9-0.1,7.9,0.3,11.6,1.2c6.9,1.7,13.3,4.5,18.6,9.6
		c3.9,3.7,7,7.9,9.1,12.7c1.1,2.4,1.8,5,2.6,7.6c1.8,6.5,1.9,13,1.9,19.6c0,26.3,0,52.6,0,79C521.4,514.8,521.6,515.8,520.9,517z"/>
	<path id="letra1" class="st4" d="M292,464.3c-1.1,0.3-2.2,0.2-3.2,0.2c-26.6,0-53.1,0-79.7,0c-3.5,0-3.9-0.1-2.6,3.7
		c2.6,7.5,7.7,12.9,15.2,15.7c5.1,1.9,10.3,2.3,15.8,1.8c4.3-0.5,8.4-1.7,12.2-3.6c4-2,7.5-4.9,10.9-7.9c1.5-1.4,1.6-1.4,3.1-0.1
		c7.9,6.5,15.7,12.9,23.6,19.4c-4.4,5.8-9.6,10.6-15.4,14.7c-3.9,2.7-8.1,4.9-12.5,6.8c-2.4,1-4.9,1.8-7.5,2.3
		c-1.5,0.3-3,0.7-4.6,1.1c-6.4,1.4-12.8,1.9-19.3,1.6c-4.4-0.2-8.7-0.8-13-1.5c-3.3-0.6-6.5-1.4-9.6-2.5c-5.5-1.9-10.8-4.4-15.7-7.8
		c-5.5-3.8-10.5-8.2-14.5-13.5c-3.2-4.2-5.8-8.8-7.9-13.7c-1.6-3.6-2.5-7.3-3.8-11c-0.7-1.8-0.9-3.9-1.1-5.8
		c-0.2-4.1-1.2-8.3-0.9-12.4c0.3-4.6,0.6-9.2,1.4-13.8c0.8-4.1,1.9-8,3.3-11.9c2.4-6.3,5.5-12.1,9.7-17.4c3.2-4.1,6.7-7.8,10.8-11
		c4.4-3.4,9.1-6.3,14.2-8.4c3.4-1.4,7-2.5,10.6-3.4c1.9-0.5,3.8-0.5,5.6-1c5.2-1.3,10.5-0.6,15.7-0.7c3.1-0.1,6.2,0.5,9.2,1.2
		c7.8,1.6,15.2,4.3,22,8.7c8.1,5.3,14.2,12.2,18.9,20.5c2.2,3.8,4.1,7.8,5.3,12.1c0.9,3.1,1.7,6.2,2.4,9.4c2,9.2,1.8,18.4,1.6,27.6
		C292.3,463.8,292.1,464,292,464.3z M249.6,440.9c0.3-0.4,0.1-0.8,0.1-1.2c-0.2-3.3-1.3-6.4-2.7-9.3c-1.3-2.7-3-5.2-5.3-7.3
		c-4.1-3.6-8.8-5.2-14.1-5.3c-2.9,0-5.9,0.2-8.5,1.5c-4.8,2.2-8.3,5.9-10.7,10.6c-1.7,3.4-3,7-3.4,10.8
		C206.7,441.4,247.5,441.4,249.6,440.9z"/>
	<path id="letra0" class="st2" d="M0,491.2c0.6,0,1,0,1.4-0.6c2.2-2.7,4.5-5.4,6.8-8.1c2.8-3.4,5.6-6.8,8.4-10.2
		c2.6-3.1,5.3-6.2,7.9-9.4c1.7-2,1.7-2,3.8-0.5c5.1,3.7,10.4,7.2,16.2,9.9c4.2,2,8.4,3.9,12.9,5.1c2.6,0.7,5.1,1.4,7.7,2
		c6.2,1.3,12.4,1.9,18.7,1.6c3.2-0.1,6.4-0.8,9.4-2c3.7-1.5,6.3-4.3,6.9-8.3c0.4-2.8-0.3-5.5-2.3-7.7c-2.2-2.4-4.9-3.7-7.8-4.8
		c-3.3-1.3-6.8-2.2-10.3-3.2c-3.9-1.1-7.8-1.8-11.7-2.9c-4.5-1.3-9.1-2-13.5-3.7c-2.3-0.9-4.7-1.4-7.1-2.2
		c-10.2-3.3-19.7-7.8-27.6-15.3c-3.1-3-5.5-6.6-7.4-10.5c-4.3-8.9-4.7-18.3-3.8-27.8c0.7-7.3,3.2-14,7.1-20.2
		c3.6-5.7,8.3-10.5,13.8-14.3c5.2-3.6,10.7-6.3,16.7-8.2c2.6-0.8,5.3-1.5,8-2.1c1.9-0.4,3.8-0.4,5.6-0.9c7.3-1.7,14.6-0.8,21.9-0.8
		c4.8-0.1,9.4,1.1,14.1,1.7c2.4,0.3,4.8,1.1,7.2,1.2c1.5,0.1,2.9,0.8,4.3,1.2c7.8,2.3,15.3,5.3,22.4,9.4c3.6,2.1,7,4.5,10.4,6.8
		c0.8,0.5,1.7,1,1.8,2.3c-7.5,10.7-15.2,21.5-22.9,32.4c-4.6-3.2-9.3-6.1-14.2-8.4c-5.2-2.4-10.6-4.6-16.2-6
		c-2.1-0.5-4.5-0.5-6.5-1.6c-0.3-0.2-0.8-0.1-1.2-0.1c-4.9-0.2-9.8-0.7-14.6,0c-4.8,0.7-9,2.8-10.7,7.8c-1.1,3.3-0.4,6.5,1.9,9.2
		c1.6,1.9,3.7,3.1,6,4c2.5,1,4.9,2.1,7.5,2.7c3.1,0.7,6,1.8,9.2,2.4c2.4,0.5,4.8,1,7.2,1.7c2.8,0.9,5.7,1.3,8.6,2.1
		c3.4,1,6.8,2.1,10.2,3c3.2,0.9,6.4,2.2,9.4,3.4c3.6,1.4,7,3.3,10.3,5.3c5.3,3.4,10.1,7.4,13.8,12.6c2.1,3,3.7,6.3,5,9.8
		c1.8,4.9,1.9,9.9,2.5,15c0.2,1.5-0.2,3-0.3,4.5c-0.1,0.6-0.2,1.3-0.2,1.9c0,3.6-1,7-1.9,10.4c-0.9,3.5-2.4,6.7-4.1,9.8
		c-3.2,5.6-7.3,10.5-12.5,14.5c-3.9,2.9-7.9,5.5-12.3,7.4c-3.3,1.5-6.6,2.7-10.2,3.6c-3.7,0.9-7.4,1.7-11.1,2.4
		c-2.1,0.4-4.2,0.2-6.2,0.5c-8.5,1.2-16.9,0.2-25.4-0.4c-2.8-0.2-5.7-0.5-8.4-1.4c-1.8-0.6-3.9-0.8-5.8-1.1c-3-0.5-6-1.5-8.9-2.3
		c-4.2-1.3-8.4-2.8-12.3-4.7c-6-2.8-11.9-5.9-17.4-9.7c-3.1-2.2-6.1-4.4-8.9-7c-0.4-0.4-0.8-0.4-1.3-0.4C0,491.9,0,491.5,0,491.2z"
		/>
</g>
</svg>
