<?xml version="1.0" encoding="utf-8"?>
<!-- Generator: Adobe Illustrator 19.0.0, SVG Export Plug-In . SVG Version: 6.00 Build 0)  -->
<svg version="1.1" xmlns="http://www.w3.org/2000/svg" xmlns:xlink="http://www.w3.org/1999/xlink" x="0px" y="0px"
	 viewBox="0 0 601.1 308.4" style="enable-background:new 0 0 601.1 308.4;" xml:space="preserve">
<style type="text/css">
	.st0{fill:#6EBB44;}
	.st1{fill:#FFFFFF;}
	.st2{fill:#35B44A;}
	.st3{fill:#BCD631;}
	.st4{fill:#231F20;}
</style>
<g id="quadrados">
	<g id="quadrado20">
		<path class="st0" d="M310.9,114.9c-3,0-5.5-2.5-5.5-5.5V61.3c0-3,2.5-5.5,5.5-5.5H359c3,0,5.5,2.5,5.5,5.5v48.1
			c0,3-2.5,5.5-5.5,5.5H310.9z"/>
		<path class="st1" d="M359,58.3c1.7,0,3,1.3,3,3v48.1c0,1.7-1.3,3-3,3h-48.1c-1.7,0-3-1.3-3-3V61.3c0-1.7,1.3-3,3-3H359 M359,53.3
			h-48.1c-4.4,0-8,3.6-8,8v48.1c0,4.4,3.6,8,8,8H359c4.4,0,8-3.6,8-8V61.3C367,56.8,363.4,53.3,359,53.3L359,53.3z"/>
	</g>
	<g id="quadrado19">
		<path class="st2" d="M380.6,112.3c-3,0-5.5-2.5-5.5-5.5V25c0-3,2.5-5.5,5.5-5.5h81.8c3,0,5.5,2.5,5.5,5.5v81.8
			c0,3-2.5,5.5-5.5,5.5H380.6z"/>
		<path class="st1" d="M462.4,22c1.7,0,3,1.3,3,3v81.8c0,1.7-1.3,3-3,3h-81.8c-1.7,0-3-1.3-3-3V25c0-1.7,1.3-3,3-3H462.4 M462.4,17
			h-81.8c-4.4,0-8,3.6-8,8v81.8c0,4.4,3.6,8,8,8h81.8c4.4,0,8-3.6,8-8V25C470.4,20.6,466.8,17,462.4,17L462.4,17z"/>
	</g>
	<g id="quadrado18">
		<path class="st2" d="M155.1,145.5c-3,0-5.5-2.5-5.5-5.5V74.7c0-3,2.5-5.5,5.5-5.5h65.3c3,0,5.5,2.5,5.5,5.5V140
			c0,3-2.5,5.5-5.5,5.5H155.1z"/>
		<path class="st1" d="M220.4,71.7c1.7,0,3,1.3,3,3V140c0,1.7-1.3,3-3,3h-65.3c-1.7,0-3-1.3-3-3V74.7c0-1.7,1.3-3,3-3H220.4
			 M220.4,66.7h-65.3c-4.4,0-8,3.6-8,8V140c0,4.4,3.6,8,8,8h65.3c4.4,0,8-3.6,8-8V74.7C228.4,70.3,224.8,66.7,220.4,66.7L220.4,66.7
			z"/>
	</g>
	<g id="quadrado17">
		<path class="st3" d="M107.1,161.3c-3,0-5.5-2.5-5.5-5.5V94.9c0-3,2.5-5.5,5.5-5.5H168c3,0,5.5,2.5,5.5,5.5v60.9
			c0,3-2.5,5.5-5.5,5.5H107.1z"/>
		<path class="st1" d="M168,91.9c1.7,0,3,1.3,3,3v60.9c0,1.7-1.3,3-3,3h-60.9c-1.7,0-3-1.3-3-3V94.9c0-1.7,1.3-3,3-3H168 M168,86.9
			h-60.9c-4.4,0-8,3.6-8,8v60.9c0,4.4,3.6,8,8,8H168c4.4,0,8-3.6,8-8V94.9C176,90.5,172.4,86.9,168,86.9L168,86.9z"/>
	</g>
	<g id="quadrado16">
		<path class="st3" d="M350.8,153.8c-3,0-5.5-2.5-5.5-5.5V91.7c0-3,2.5-5.5,5.5-5.5h56.6c3,0,5.5,2.5,5.5,5.5v56.6
			c0,3-2.5,5.5-5.5,5.5H350.8z"/>
		<path class="st1" d="M407.3,88.7c1.7,0,3,1.3,3,3v56.6c0,1.7-1.3,3-3,3h-56.6c-1.7,0-3-1.3-3-3V91.7c0-1.7,1.3-3,3-3H407.3
			 M407.3,83.7h-56.6c-4.4,0-8,3.6-8,8v56.6c0,4.4,3.6,8,8,8h56.6c4.4,0,8-3.6,8-8V91.7C415.3,87.3,411.8,83.7,407.3,83.7
			L407.3,83.7z"/>
	</g>
	<g id="quadrado15">
		<path class="st0" d="M242.4,252.9c-3,0-5.5-2.5-5.5-5.5v-48.1c0-3,2.5-5.5,5.5-5.5h48.1c3,0,5.5,2.5,5.5,5.5v48.1
			c0,3-2.5,5.5-5.5,5.5H242.4z"/>
		<path class="st1" d="M290.5,196.3c1.7,0,3,1.3,3,3v48.1c0,1.7-1.3,3-3,3h-48.1c-1.7,0-3-1.3-3-3v-48.1c0-1.7,1.3-3,3-3H290.5
			 M290.5,191.3h-48.1c-4.4,0-8,3.6-8,8v48.1c0,4.4,3.6,8,8,8h48.1c4.4,0,8-3.6,8-8v-48.1C298.5,194.9,294.9,191.3,290.5,191.3
			L290.5,191.3z"/>
	</g>
	<g id="quadrado14">
		<path class="st0" d="M311.1,230.5c-3,0-5.5-2.5-5.5-5.5v-45.4c0-3,2.5-5.5,5.5-5.5h45.4c3,0,5.5,2.5,5.5,5.5V225
			c0,3-2.5,5.5-5.5,5.5H311.1z"/>
		<path class="st1" d="M356.5,176.6c1.7,0,3,1.3,3,3V225c0,1.7-1.3,3-3,3h-45.4c-1.7,0-3-1.3-3-3v-45.4c0-1.7,1.3-3,3-3H356.5
			 M356.5,171.6h-45.4c-4.4,0-8,3.6-8,8V225c0,4.4,3.6,8,8,8h45.4c4.4,0,8-3.6,8-8v-45.4C364.5,175.2,360.9,171.6,356.5,171.6
			L356.5,171.6z"/>
	</g>
	<g id="quadrado13">
		<path class="st0" d="M245.2,134.3c-3,0-5.5-2.5-5.5-5.5V83.7c0-3,2.5-5.5,5.5-5.5h45.2c3,0,5.5,2.5,5.5,5.5v45.2
			c0,3-2.5,5.5-5.5,5.5H245.2z"/>
		<path class="st1" d="M290.4,80.7c1.7,0,3,1.3,3,3v45.2c0,1.7-1.3,3-3,3h-45.2c-1.7,0-3-1.3-3-3V83.7c0-1.7,1.3-3,3-3H290.4
			 M290.4,75.7h-45.2c-4.4,0-8,3.6-8,8v45.2c0,4.4,3.6,8,8,8h45.2c4.4,0,8-3.6,8-8V83.7C298.4,79.3,294.8,75.7,290.4,75.7
			L290.4,75.7z"/>
	</g>
	<g id="quadrado12">
		<path class="st2" d="M381.3,239.8c-3,0-5.5-2.5-5.5-5.5v-65.5c0-3,2.5-5.5,5.5-5.5h65.5c3,0,5.5,2.5,5.5,5.5v65.5
			c0,3-2.5,5.5-5.5,5.5H381.3z"/>
		<path class="st1" d="M446.8,165.8c1.7,0,3,1.3,3,3v65.5c0,1.7-1.3,3-3,3h-65.5c-1.7,0-3-1.3-3-3v-65.5c0-1.7,1.3-3,3-3H446.8
			 M446.8,160.8h-65.5c-4.4,0-8,3.6-8,8v65.5c0,4.4,3.6,8,8,8h65.5c4.4,0,8-3.6,8-8v-65.5C454.8,164.4,451.3,160.8,446.8,160.8
			L446.8,160.8z"/>
	</g>
	<g id="quadrado11">
		<path class="st0" d="M400,175.2c-3,0-5.5-2.5-5.5-5.5v-56.6c0-3,2.5-5.5,5.5-5.5h56.6c3,0,5.5,2.5,5.5,5.5v56.6
			c0,3-2.5,5.5-5.5,5.5H400z"/>
		<path class="st1" d="M456.6,110.1c1.7,0,3,1.3,3,3v56.6c0,1.7-1.3,3-3,3H400c-1.7,0-3-1.3-3-3v-56.6c0-1.7,1.3-3,3-3H456.6
			 M456.6,105.1H400c-4.4,0-8,3.6-8,8v56.6c0,4.4,3.6,8,8,8h56.6c4.4,0,8-3.6,8-8v-56.6C464.6,108.7,461,105.1,456.6,105.1
			L456.6,105.1z"/>
	</g>
	<g id="quadrado10">
		<path class="st3" d="M433.5,219.3c-3,0-5.5-2.5-5.5-5.5v-61c0-3,2.5-5.5,5.5-5.5h61c3,0,5.5,2.5,5.5,5.5v61c0,3-2.5,5.5-5.5,5.5
			H433.5z"/>
		<path class="st1" d="M494.5,149.8c1.7,0,3,1.3,3,3v61c0,1.7-1.3,3-3,3h-61c-1.7,0-3-1.3-3-3v-61c0-1.7,1.3-3,3-3H494.5
			 M494.5,144.8h-61c-4.4,0-8,3.6-8,8v61c0,4.4,3.6,8,8,8h61c4.4,0,8-3.6,8-8v-61C502.5,148.4,498.9,144.8,494.5,144.8L494.5,144.8z
			"/>
	</g>
	<g id="quadrado9">
		<path class="st0" d="M495.8,286.8c-3,0-5.5-2.5-5.5-5.5v-80.5c0-3,2.5-5.5,5.5-5.5h80.5c3,0,5.5,2.5,5.5,5.5v80.5
			c0,3-2.5,5.5-5.5,5.5H495.8z"/>
		<path class="st1" d="M576.4,197.8c1.7,0,3,1.3,3,3v80.5c0,1.7-1.3,3-3,3h-80.5c-1.7,0-3-1.3-3-3v-80.5c0-1.7,1.3-3,3-3H576.4
			 M576.4,192.8h-80.5c-4.4,0-8,3.6-8,8v80.5c0,4.4,3.6,8,8,8h80.5c4.4,0,8-3.6,8-8v-80.5C584.4,196.4,580.8,192.8,576.4,192.8
			L576.4,192.8z"/>
	</g>
	<g id="quadrado8">
		<path class="st2" d="M524.4,176.9c-3,0-5.5-2.5-5.5-5.5v-45.6c0-3,2.5-5.5,5.5-5.5H570c3,0,5.5,2.5,5.5,5.5v45.6
			c0,3-2.5,5.5-5.5,5.5H524.4z"/>
		<path class="st1" d="M570,122.7c1.7,0,3,1.3,3,3v45.6c0,1.7-1.3,3-3,3h-45.6c-1.7,0-3-1.3-3-3v-45.6c0-1.7,1.3-3,3-3H570
			 M570,117.7h-45.6c-4.4,0-8,3.6-8,8v45.6c0,4.4,3.6,8,8,8H570c4.4,0,8-3.6,8-8v-45.6C578,121.3,574.4,117.7,570,117.7L570,117.7z"
			/>
	</g>
	<g id="quadrado7">
		<path class="st3" d="M481.3,107.9c-3,0-5.5-2.5-5.5-5.5V56.6c0-3,2.5-5.5,5.5-5.5h45.8c3,0,5.5,2.5,5.5,5.5v45.8
			c0,3-2.5,5.5-5.5,5.5H481.3z"/>
		<path class="st1" d="M527.2,53.6c1.7,0,3,1.3,3,3v45.8c0,1.7-1.3,3-3,3h-45.8c-1.7,0-3-1.3-3-3V56.6c0-1.7,1.3-3,3-3H527.2
			 M527.2,48.6h-45.8c-4.4,0-8,3.6-8,8v45.8c0,4.4,3.6,8,8,8h45.8c4.4,0,8-3.6,8-8V56.6C535.2,52.2,531.6,48.6,527.2,48.6
			L527.2,48.6z"/>
	</g>
	<g id="quadrado6">
		<path class="st2" d="M265.5,292.1c-3,0-5.5-2.5-5.5-5.5v-45.2c0-3,2.5-5.5,5.5-5.5h45.2c3,0,5.5,2.5,5.5,5.5v45.2
			c0,3-2.5,5.5-5.5,5.5H265.5z"/>
		<path class="st1" d="M310.6,238.4c1.7,0,3,1.3,3,3v45.2c0,1.7-1.3,3-3,3h-45.2c-1.7,0-3-1.3-3-3v-45.2c0-1.7,1.3-3,3-3H310.6
			 M310.6,233.4h-45.2c-4.4,0-8,3.6-8,8v45.2c0,4.4,3.6,8,8,8h45.2c4.4,0,8-3.6,8-8v-45.2C318.6,237,315,233.4,310.6,233.4
			L310.6,233.4z"/>
	</g>
	<g id="quadrado5">
		<path class="st2" d="M31.5,188.5c-3,0-5.5-2.5-5.5-5.5v-45.5c0-3,2.5-5.5,5.5-5.5H77c3,0,5.5,2.5,5.5,5.5V183c0,3-2.5,5.5-5.5,5.5
			H31.5z"/>
		<path class="st1" d="M77,134.5c1.7,0,3,1.3,3,3V183c0,1.7-1.3,3-3,3H31.5c-1.7,0-3-1.3-3-3v-45.5c0-1.7,1.3-3,3-3H77 M77,129.5
			H31.5c-4.4,0-8,3.6-8,8V183c0,4.4,3.6,8,8,8H77c4.4,0,8-3.6,8-8v-45.5C85,133.1,81.4,129.5,77,129.5L77,129.5z"/>
	</g>
	<g id="quadrado4">
		<path class="st3" d="M74.5,257.6c-3,0-5.5-2.5-5.5-5.5v-45.5c0-3,2.5-5.5,5.5-5.5H120c3,0,5.5,2.5,5.5,5.5v45.5
			c0,3-2.5,5.5-5.5,5.5H74.5z"/>
		<path class="st1" d="M120,203.6c1.7,0,3,1.3,3,3v45.5c0,1.7-1.3,3-3,3H74.5c-1.7,0-3-1.3-3-3v-45.5c0-1.7,1.3-3,3-3H120
			 M120,198.6H74.5c-4.4,0-8,3.6-8,8v45.5c0,4.4,3.6,8,8,8H120c4.4,0,8-3.6,8-8v-45.5C128,202.2,124.4,198.6,120,198.6L120,198.6z"
			/>
	</g>
	<g id="quadrado3">
		<path class="st2" d="M139.4,288.9c-3,0-5.5-2.5-5.5-5.5v-81.6c0-3,2.5-5.5,5.5-5.5h81.6c3,0,5.5,2.5,5.5,5.5v81.6
			c0,3-2.5,5.5-5.5,5.5H139.4z"/>
		<path class="st1" d="M221.1,198.8c1.7,0,3,1.3,3,3v81.6c0,1.7-1.3,3-3,3h-81.6c-1.7,0-3-1.3-3-3v-81.6c0-1.7,1.3-3,3-3H221.1
			 M221.1,193.8h-81.6c-4.4,0-8,3.6-8,8v81.6c0,4.4,3.6,8,8,8h81.6c4.4,0,8-3.6,8-8v-81.6C229.1,197.4,225.5,193.8,221.1,193.8
			L221.1,193.8z"/>
	</g>
	<g id="quadrado2">
		<path class="st0" d="M24.9,113.7c-3,0-5.5-2.5-5.5-5.5V27c0-3,2.5-5.5,5.5-5.5h81.2c3,0,5.5,2.5,5.5,5.5v81.2c0,3-2.5,5.5-5.5,5.5
			H24.9z"/>
		<path class="st1" d="M106.1,24c1.7,0,3,1.3,3,3v81.2c0,1.7-1.3,3-3,3H24.9c-1.7,0-3-1.3-3-3V27c0-1.7,1.3-3,3-3H106.1 M106.1,19
			H24.9c-4.4,0-8,3.6-8,8v81.2c0,4.4,3.6,8,8,8h81.2c4.4,0,8-3.6,8-8V27C114.1,22.6,110.5,19,106.1,19L106.1,19z"/>
	</g>
	<g id="quadrado1">
		<path class="st3" d="M194.6,222.8c-3,0-5.5-2.5-5.5-5.5v-56.6c0-3,2.5-5.5,5.5-5.5h56.6c3,0,5.5,2.5,5.5,5.5v56.6
			c0,3-2.5,5.5-5.5,5.5H194.6z"/>
		<path class="st1" d="M251.2,157.7c1.7,0,3,1.3,3,3v56.6c0,1.7-1.3,3-3,3h-56.6c-1.7,0-3-1.3-3-3v-56.6c0-1.7,1.3-3,3-3H251.2
			 M251.2,152.7h-56.6c-4.4,0-8,3.6-8,8v56.6c0,4.4,3.6,8,8,8h56.6c4.4,0,8-3.6,8-8v-56.6C259.2,156.3,255.6,152.7,251.2,152.7
			L251.2,152.7z"/>
	</g>
	<g id="quadrado0">
		<path class="st0" d="M145.7,200.8c-3,0-5.5-2.5-5.5-5.5v-55.6c0-3,2.5-5.5,5.5-5.5h55.6c3,0,5.5,2.5,5.5,5.5v55.6
			c0,3-2.5,5.5-5.5,5.5H145.7z"/>
		<path class="st1" d="M201.3,136.7c1.7,0,3,1.3,3,3v55.6c0,1.7-1.3,3-3,3h-55.6c-1.7,0-3-1.3-3-3v-55.6c0-1.7,1.3-3,3-3H201.3
			 M201.3,131.7h-55.6c-4.4,0-8,3.6-8,8v55.6c0,4.4,3.6,8,8,8h55.6c4.4,0,8-3.6,8-8v-55.6C209.3,135.3,205.7,131.7,201.3,131.7
			L201.3,131.7z"/>
	</g>
</g>
<g id="letras">
	<path id="letra7" class="st4" d="M856.5,342.4c14.8,0,29.5,0,44.3,0c0,58,0,115.8,0,173.8c-14.8,0-29.5,0-44.3,0
		C856.5,458.2,856.5,400.4,856.5,342.4z"/>
	<path id="letra6" class="st4" d="M829.9,493.8c-3.2,4.3-7,8-11,11.3c-3.6,3-7.4,5.5-11.6,7.5c-3,1.4-6,2.8-9.2,3.8
		c-3.1,0.9-6.2,1.8-9.3,2.4c-3.3,0.6-6.6,0.9-10,1.2c-6.2,0.5-12.5-0.1-18.6-1c-2.1-0.3-4.3-0.9-6.4-1.4c-2.6-0.7-5.2-1.5-7.8-2.3
		c-2.4-0.7-4.8-1.8-7-3.1c-4.5-2.6-8.9-5.3-12.7-8.8c-2.8-2.5-5.4-5.2-7.7-8.1c-3.6-4.5-6.5-9.5-8.7-14.8c-1.5-3.7-2.8-7.5-3.6-11.5
		c-1.3-6.8-2.1-13.5-1.8-20.4c0.1-3.6,1-7.1,1.5-10.6c0.3-1.9,0.7-3.7,1.2-5.6c1.2-4.1,2.6-8,4.4-11.9c2-4.3,4.5-8.3,7.4-11.9
		c4.1-5,8.6-9.6,14.1-13.1c3.6-2.3,7.3-4.5,11.4-6.1c3.2-1.3,6.5-2.2,9.9-3.1c7.9-2.3,15.9-2.2,23.9-1.5c4.3,0.3,8.5,1.2,12.7,2.5
		c7.3,2.2,13.9,5.5,19.9,10.1c6.3,4.9,11.2,10.9,15,17.9c1.9,3.4,3.5,7,4.7,10.7c1.3,3.9,2.1,7.9,3,11.9c2,8.7,1.8,17.6,1.6,26.3
		c-0.9,0.9-2,0.7-3,0.7c-18,0-36,0-54,0c-9,0-17.9,0-26.9,0c-0.8,0-1.6,0-2.4,0c-1.2,1.7,0.1,3.1,0.6,4.3c1,2.3,2.1,4.7,3.7,6.7
		c3.4,4.2,7.6,7.1,12.8,8.8c6,2,12,1.9,18,0.8c3.7-0.7,7.2-2.2,10.5-4.2c3.1-1.9,6-4.2,8.7-6.6c1.7-1.5,1.8-1.5,3.6-0.1
		c4.4,3.6,8.7,7.2,13.1,10.8c2.7,2.2,5.3,4.6,8.2,6.6C828.7,492.1,829.5,492.7,829.9,493.8z M747.4,441.1c15.2,0,30.1,0,44.9,0
		c0.4-2.1-0.4-3.9-0.9-5.7c-1-3.8-2.8-7.2-5.2-10.2c-3-3.7-7-6.1-11.6-6.8c-3.9-0.7-8-0.9-11.9,0.8c-1.8,0.8-3.5,1.5-5,2.7
		C751.5,426.7,748.9,433.4,747.4,441.1z"/>
	<path id="letra5" class="st4" d="M594.2,502.3c-0.1-1.1-0.8-1-1.9-0.7c0,5.8,0,11.7,0,17.5c0,6,0,12,0,18c0,5.9,0,11.8,0,17.4
		c-0.5,0.6-0.9,0.6-1.3,0.6c-14.5,0-29.1,0-43.6,0c0-0.8-0.1-1.6-0.1-2.4c0-54.2,0-108.4,0-162.6c0-0.8,0-1.6,0.1-2.4
		c0.4,0,0.8-0.1,1.2-0.1c14.1,0,28.1,0,42.2,0c0.5,0,1-0.1,1.6,0.6c0,5.1,0,10.5,0,15.8c1.3,0.4,1.9,0.2,1.9-1.1c0,0,0,0,0,0
		c0.4-0.2,0.9-0.4,0.9-1c0-0.2,0.1-0.3,0.2-0.4c0.6,0,1-0.3,0.9-1l0,0c1.6-0.7,2.8-1.7,3.3-3.4c3.6-3.5,7.6-6.4,12.1-8.6
		c1.9-1,3.9-1.6,6-2.3c5.9-2,12.1-2.2,18.3-2c3.4,0.1,6.7,0.9,10,1.8c2.2,0.6,4.4,1.2,6.5,2.1c4.4,1.9,8.5,4.2,12.4,7
		c5.1,3.7,9.3,8.3,12.8,13.4c2.2,3.2,4,6.6,5.7,10c1.6,3.4,2.7,7,3.8,10.6c0.6,1.8,0.8,3.9,1.3,5.7c1.2,4.5,0.6,9.1,1.5,13.5
		c0.4,2.2,0.3,4.5,0,6.7c-0.2,1.4-0.5,2.8-0.5,4.3c-0.1,4.3-0.9,8.5-1.8,12.7c-0.8,3.8-1.9,7.5-3.4,11c-1.8,4.4-4.1,8.6-6.8,12.5
		c-3.4,5-7.6,9.3-12.3,13.1c-2.8,2.3-5.9,4.1-9.1,5.7c-4.3,2.2-8.9,3.7-13.6,4.5c-4.2,0.7-8.5,1.3-12.9,0.8
		c-3.8-0.4-7.7-0.5-11.3-1.6c-3.9-1.2-7.7-2.6-11.3-4.8c-4.8-2.8-8.8-6.5-12.6-10.5C594.3,502.6,594.3,502.4,594.2,502.3z
		 M592.3,451.8c-0.1,3.5-0.2,7,1.1,10.4c1.1,2.9,2.3,5.8,4.1,8.3c3.9,5.5,9.2,9.3,15.7,10.5c4.1,0.7,8.4,0.7,12.7-0.5
		c4.4-1.3,8.1-3.6,11.2-6.8c5.2-5.4,7.4-12.1,8-19.4c0.3-3,0.1-6-0.7-9c-0.6-2.1-1-4.3-1.8-6.3c-1.8-4.3-4.5-7.9-8.1-10.9
		c-3.8-3.2-8-5.1-12.8-5.6c-5.4-0.6-10.5,0.2-15.4,2.9c-8.6,4.9-12.8,12.4-14.1,22C592.1,448.7,592.3,450.2,592.3,451.8z"/>
	<path id="letra4" class="st4" d="M479.2,443c0.4-5.5-0.4-10.5-3.9-15c-2.2-2.7-4.9-4.5-8.1-5.8c-4.4-1.8-9-2.2-13.7-2.1
		c-2.1,0-4.2,0.2-6.2,0.1c-3.4-0.1-6.7,0.7-9.9,1.2c-3.9,0.7-7.9,1.6-11.7,2.9c-2.6,0.9-5.2,1.7-8.1,2.8
		c-3.1-10.6-6.2-21.1-9.2-31.4c1.2-1.5,2.9-1.8,4.4-2.3c4.7-1.5,9.4-3.2,14.3-4.4c5.8-1.4,11.7-2.2,17.6-3.1
		c8.5-1.3,16.9-0.8,25.3-0.6c3.6,0.1,7.3,0.7,10.8,1.5c1.7,0.4,3.4,0.6,5.1,1c5.6,1.4,10.8,3.5,15.7,6.4c6.4,3.7,11.5,8.9,15.3,15.1
		c2,3.3,3.4,7,4.5,10.8c2.5,8.6,2.8,17.4,2.8,26.2c0,22.5,0,44.9,0,67.4c0,0.9,0.2,1.9-0.3,2.8c-2,0.5-35.9,0.7-44.4,0.3
		c-0.7-4.1,0-8.4-0.4-12.8c-1.2,0.2-1.7,1.1-2.4,1.7c-4.5,4.2-9.4,7.8-15.1,10c-4.3,1.7-8.9,2.9-13.7,3.5c-5.4,0.6-10.7,0.4-16-0.3
		c-2.3-0.3-4.6-0.8-6.9-1.6c-2-0.7-4-1.3-5.9-2.1c-3.4-1.5-6.6-3.5-9.4-6c-3.9-3.5-7-7.6-9-12.4c-1.2-2.8-2-5.7-2.6-8.8
		c-0.7-3.7-0.9-7.4-0.7-11.2c0.2-7.3,2.2-14.1,6.3-20.2c2.9-4.3,6.6-7.8,11.1-10.4c3.9-2.3,8-4,12.4-5.2c9.1-2.5,18.3-3.1,27.7-2.6
		c2.9,0.2,5.9,0.4,8.8,0.9c4.4,0.8,8.8,1.9,13.2,2.9C477.6,442.5,478,443.5,479.2,443z M457.4,491.2c2-0.1,4-0.3,6-0.8
		c2.9-0.7,5.6-1.8,8.1-3.5c3.2-2.1,5.4-5,6.7-8.5c1.5-4,2.1-8.2,1.9-12.4c-0.1-1.7-0.5-2.3-2.2-2.9c-3.3-1.2-6.8-1.5-10.2-2.3
		c-5.7-1.2-11.1-0.4-16.5,1.4c-4.4,1.5-7.7,4.4-9.3,9c-0.8,2.3-0.8,4.7-0.7,7.1c0.1,4.3,2.2,7.6,5.6,9.9
		C450,490.4,453.6,491.4,457.4,491.2z"/>
	<path id="letra3" class="st2" d="M295.1,469.5c0,15.7,0,31.5,0,47c-0.9,0.7-1.6,0.5-2.3,0.5c-13.9,0-27.8,0-41.8,0
		c-2.7,0-2.8-0.1-2.8-2.9c0-27.1,0-54.2,0-81.4c0-26.8,0-53.6,0-80.4c0-0.9,0-1.9,0-2.7c0.8-0.8,1.6-0.6,2.4-0.6
		c25.9,0,51.8,0.1,77.8,0.1c4.3,0,8.3,1,12.5,1.8c1.6,0.3,3.1,0.6,4.7,0.9c5.9,1.4,11.5,3.6,16.7,6.5c5.8,3.2,11,7.2,15.3,12.4
		c2.7,3.4,5.3,6.9,7.1,10.8c1.6,3.4,2.8,6.9,3.8,10.6c2,7.6,2.2,15.3,1.6,23c-0.2,2.7-0.5,5.5-1.5,8.1c-0.5,1.3-0.6,2.8-1,4.1
		c-1.6,5.8-4.3,11-7.8,15.8c-3.5,4.8-7.7,8.9-12.6,12.3c-4.6,3.2-9.5,5.8-14.8,7.8c-3.6,1.3-7.4,2.3-11.1,3.2
		c-4.1,1-8.2,1.4-12.4,1.9c-10.5,1.3-21.1,0.4-31.6,0.7c-0.5,0-1,0-1.4,0.1C295.8,469.1,295.6,469.3,295.1,469.5z M295.4,388.5
		c0,14.5,0,29,0,43.5c0.7,0.4,1.2,0.3,1.8,0.3c7.5,0,15,0,22.5,0c4.2,0,8.2-1.1,12-2.8c8-3.6,11.7-10.1,12.4-18.6
		c0.2-2.1-0.4-4.1-0.7-6.2c-0.6-3.7-2.3-6.8-4.8-9.4c-4.8-4.9-11-6.6-17.4-7c-8-0.4-16.1-0.1-24.2-0.2
		C296.4,388.1,295.9,388,295.4,388.5z"/>
	<path id="letra2" class="st4" d="M221.9,517c-14.8,0-29.5,0-44.1,0c-0.9-0.7-1-1.6-1-2.6c0-3.6,0-7.2,0-10.8c0-18.6,0-37.3,0-55.9
		c0-2.9-0.3-5.8-0.7-8.6c-0.8-4.7-3.2-8.6-6.9-11.6c-0.9-0.7-2.1-1.2-3.2-1.6c-3.2-1-6.4-2-9.8-1c-2,0.6-4.1,0.8-5.9,1.8
		c-4.8,2.8-7.5,7-8.9,12.4c-1.1,4.1-1,8.2-1,12.4c0,20.8,0,41.6,0,62.4c0,1,0.2,2.1-0.4,3.1c-14.7,0-29.3,0-44.1,0
		c-0.9-0.9-0.6-2-0.6-3.1c0-21.4,0-42.7,0-64.1c0-3.6-0.1-7.2-0.9-10.7c-1.3-6.1-4.4-11-10.5-13.2c-3.4-1.2-6.8-1.7-10.6-0.8
		c-4.2,1-7.5,2.8-10.1,6.2c-1.2,1.6-2,3.3-2.7,5.1c-1.7,4.5-1.8,9.2-1.8,13.9c0,21.2,0,42.4,0,63.6c0,1,0.3,2.1-0.6,3.1
		c-14.6,0-29.4,0-44.2,0c-0.7-0.8-0.5-1.9-0.5-2.9c0-7.4,0-14.9,0-22.3c0-33.8,0-67.5,0-101.3c0-1-0.2-2.1,0.3-3.2
		c14.9,0,29.8,0,45,0c0.3,5.4,0,10.7,0.2,16.1c1,0.2,1.5-0.4,2-1.1c2.5-2.9,5.2-5.7,8.3-8.1c4.7-3.7,9.8-6.4,15.5-8.2
		c6.4-2,12.8-2.1,19.3-1.6c4.7,0.4,9.3,1.8,13.6,3.9c6.7,3.3,12.1,8.1,16,14.5c0.4,0.7,0.9,1.3,1.4,2.1c1.7-1.1,2.9-2.9,4.3-4.3
		c4.6-4.6,9.7-8.4,15.6-11.3c2.8-1.4,5.8-2.4,8.8-3.3c5-1.5,10.1-1.8,15.2-1.9c3.9-0.1,7.9,0.3,11.6,1.2c6.9,1.7,13.3,4.5,18.6,9.6
		c3.9,3.7,7,7.9,9.1,12.7c1.1,2.4,1.8,5,2.6,7.6c1.8,6.5,1.9,13,1.9,19.6c0,26.3,0,52.6,0,79C222.4,514.8,222.6,515.8,221.9,517z"/>
	<path id="letra1" class="st4" d="M-7,464.3c-1.1,0.3-2.2,0.2-3.2,0.2c-26.6,0-53.1,0-79.7,0c-3.5,0-3.9-0.1-2.6,3.7
		c2.6,7.5,7.7,12.9,15.2,15.7c5.1,1.9,10.3,2.3,15.8,1.8c4.3-0.5,8.4-1.7,12.2-3.6c4-2,7.5-4.9,10.9-7.9c1.5-1.4,1.6-1.4,3.1-0.1
		c7.9,6.5,15.7,12.9,23.6,19.4c-4.4,5.8-9.6,10.6-15.4,14.7c-3.9,2.7-8.1,4.9-12.5,6.8c-2.4,1-4.9,1.8-7.5,2.3
		c-1.5,0.3-3,0.7-4.6,1.1c-6.4,1.4-12.8,1.9-19.3,1.6c-4.4-0.2-8.7-0.8-13-1.5c-3.3-0.6-6.5-1.4-9.6-2.5c-5.5-1.9-10.8-4.4-15.7-7.8
		c-5.5-3.8-10.5-8.2-14.5-13.5c-3.2-4.2-5.8-8.8-7.9-13.7c-1.6-3.6-2.5-7.3-3.8-11c-0.7-1.8-0.9-3.9-1.1-5.8
		c-0.2-4.1-1.2-8.3-0.9-12.4c0.3-4.6,0.6-9.2,1.4-13.8c0.8-4.1,1.9-8,3.3-11.9c2.4-6.3,5.5-12.1,9.7-17.4c3.2-4.1,6.7-7.8,10.8-11
		c4.4-3.4,9.1-6.3,14.2-8.4c3.4-1.4,7-2.5,10.6-3.4c1.9-0.5,3.8-0.5,5.6-1c5.2-1.3,10.5-0.6,15.7-0.7c3.1-0.1,6.2,0.5,9.2,1.2
		c7.8,1.6,15.2,4.3,22,8.7c8.1,5.3,14.2,12.2,18.9,20.5c2.2,3.8,4.1,7.8,5.3,12.1c0.9,3.1,1.7,6.2,2.4,9.4c2,9.2,1.8,18.4,1.6,27.6
		C-6.8,463.8-6.9,464-7,464.3z M-49.5,440.9c0.3-0.4,0.1-0.8,0.1-1.2c-0.2-3.3-1.3-6.4-2.7-9.3c-1.3-2.7-3-5.2-5.3-7.3
		c-4.1-3.6-8.8-5.2-14.1-5.3c-2.9,0-5.9,0.2-8.5,1.5c-4.8,2.2-8.3,5.9-10.7,10.6c-1.7,3.4-3,7-3.4,10.8
		C-92.3,441.4-51.5,441.4-49.5,440.9z"/>
	<path id="letra0" class="st2" d="M-299,491.2c0.6,0,1,0,1.4-0.6c2.2-2.7,4.5-5.4,6.8-8.1c2.8-3.4,5.6-6.8,8.4-10.2
		c2.6-3.1,5.3-6.2,7.9-9.4c1.7-2,1.7-2,3.8-0.5c5.1,3.7,10.4,7.2,16.2,9.9c4.2,2,8.4,3.9,12.9,5.1c2.6,0.7,5.1,1.4,7.7,2
		c6.2,1.3,12.4,1.9,18.7,1.6c3.2-0.1,6.4-0.8,9.4-2c3.7-1.5,6.3-4.3,6.9-8.3c0.4-2.8-0.3-5.5-2.3-7.7c-2.2-2.4-4.9-3.7-7.8-4.8
		c-3.3-1.3-6.8-2.2-10.3-3.2c-3.9-1.1-7.8-1.8-11.7-2.9c-4.5-1.3-9.1-2-13.5-3.7c-2.3-0.9-4.7-1.4-7.1-2.2
		c-10.2-3.3-19.7-7.8-27.6-15.3c-3.1-3-5.5-6.6-7.4-10.5c-4.3-8.9-4.7-18.3-3.8-27.8c0.7-7.3,3.2-14,7.1-20.2
		c3.6-5.7,8.3-10.5,13.8-14.3c5.2-3.6,10.7-6.3,16.7-8.2c2.6-0.8,5.3-1.5,8-2.1c1.9-0.4,3.8-0.4,5.6-0.9c7.3-1.7,14.6-0.8,21.9-0.8
		c4.8-0.1,9.4,1.1,14.1,1.7c2.4,0.3,4.8,1.1,7.2,1.2c1.5,0.1,2.9,0.8,4.3,1.2c7.8,2.3,15.3,5.3,22.4,9.4c3.6,2.1,7,4.5,10.4,6.8
		c0.8,0.5,1.7,1,1.8,2.3c-7.5,10.7-15.2,21.5-22.9,32.4c-4.6-3.2-9.3-6.1-14.2-8.4c-5.2-2.4-10.6-4.6-16.2-6
		c-2.1-0.5-4.5-0.5-6.5-1.6c-0.3-0.2-0.8-0.1-1.2-0.1c-4.9-0.2-9.8-0.7-14.6,0c-4.8,0.7-9,2.8-10.7,7.8c-1.1,3.3-0.4,6.5,1.9,9.2
		c1.6,1.9,3.7,3.1,6,4c2.5,1,4.9,2.1,7.5,2.7c3.1,0.7,6,1.8,9.2,2.4c2.4,0.5,4.8,1,7.2,1.7c2.8,0.9,5.7,1.3,8.6,2.1
		c3.4,1,6.8,2.1,10.2,3c3.2,0.9,6.4,2.2,9.4,3.4c3.6,1.4,7,3.3,10.3,5.3c5.3,3.4,10.1,7.4,13.8,12.6c2.1,3,3.7,6.3,5,9.8
		c1.8,4.9,1.9,9.9,2.5,15c0.2,1.5-0.2,3-0.3,4.5c-0.1,0.6-0.2,1.3-0.2,1.9c0,3.6-1,7-1.9,10.4c-0.9,3.5-2.4,6.7-4.1,9.8
		c-3.2,5.6-7.3,10.5-12.5,14.5c-3.9,2.9-7.9,5.5-12.3,7.4c-3.3,1.5-6.6,2.7-10.2,3.6c-3.7,0.9-7.4,1.7-11.1,2.4
		c-2.1,0.4-4.2,0.2-6.2,0.5c-8.5,1.2-16.9,0.2-25.4-0.4c-2.8-0.2-5.7-0.5-8.4-1.4c-1.8-0.6-3.9-0.8-5.8-1.1c-3-0.5-6-1.5-8.9-2.3
		c-4.2-1.3-8.4-2.8-12.3-4.7c-6-2.8-11.9-5.9-17.4-9.7c-3.1-2.2-6.1-4.4-8.9-7c-0.4-0.4-0.8-0.4-1.3-0.4
		C-299,491.9-299,491.5-299,491.2z"/>
</g>
</svg>
